<svg width="20" height="34" viewBox="0 0 20 34" fill="none" xmlns="http://www.w3.org/2000/svg">
<path d="M19.2553 30.6455C19.3059 30.4001 19.0462 29.8456 18.476 28.983C18.3318 28.7316 18.1216 28.3817 17.847 27.9332C17.572 27.4846 17.3241 27.0743 17.104 26.7031C16.8831 26.3315 16.6795 25.9775 16.4926 25.6411C16.4668 25.5804 16.3815 25.3979 16.2372 25.0929C16.0924 24.7882 15.9606 24.5481 15.8407 24.3719C15.7209 24.1963 15.5809 24.062 15.4207 23.9695C15.1919 23.8374 14.8119 23.8355 14.2807 23.9633C13.7491 24.0915 13.2297 24.2642 12.7223 24.4827C12.215 24.7011 11.7071 24.8804 11.1987 25.0217C10.6898 25.1629 10.3324 25.1738 10.1267 25.055C10.0234 24.9954 9.91124 24.8922 9.78972 24.7463C9.66847 24.6001 9.57941 24.4834 9.52165 24.3974C9.46511 24.3109 9.37419 24.152 9.24912 23.9191C9.12348 23.6864 9.05303 23.5579 9.03682 23.5332C7.97145 21.7585 7.20181 19.9868 6.72751 18.2185C6.25395 16.4496 6.03436 14.5306 6.06984 12.4609C6.07164 12.4314 6.06848 12.2846 6.06066 12.0209C6.05278 11.7569 6.05181 11.5735 6.05813 11.4701C6.06429 11.367 6.0834 11.2216 6.11545 11.0342C6.1475 10.8468 6.1931 10.7016 6.25262 10.5985C6.37145 10.3927 6.68656 10.2235 7.19767 10.0914C7.70861 9.95945 8.23854 9.86097 8.78675 9.79637C9.33526 9.73194 9.87142 9.62183 10.3957 9.46703C10.92 9.31199 11.2481 9.12022 11.3802 8.89144C11.4726 8.73136 11.5268 8.54504 11.5425 8.33299C11.5584 8.12055 11.5525 7.84672 11.5253 7.5105C11.498 7.17437 11.4804 6.97369 11.4726 6.90785C11.4661 6.52303 11.4657 6.11472 11.4706 5.68278C11.4756 5.25091 11.4854 4.77196 11.499 4.24598C11.5128 3.72029 11.5197 3.31223 11.5192 3.02211C11.5813 1.99027 11.5292 1.38027 11.3627 1.19292C11.3024 1.11233 11.1921 1.0256 11.0321 0.933205C10.723 0.754737 10.2868 0.579022 9.72293 0.406249C9.159 0.233191 8.69795 0.126983 8.33908 0.0878635C7.62831 -0.00230385 6.61898 0.3455 5.31107 1.13093C4.1067 1.86931 3.2005 2.76516 2.59283 3.81766C2.41462 4.12634 2.26125 4.43822 2.13268 4.75336C2.00429 5.0682 1.88588 5.43849 1.77756 5.86422C1.66912 6.28973 1.59513 6.6096 1.55564 6.82293C1.51615 7.03641 1.45016 7.42158 1.35753 7.97852C1.26473 8.5352 1.20606 8.87491 1.18094 8.9977C0.93397 10.3502 0.83087 11.6254 0.871346 12.8236C0.929386 14.8097 1.28864 17.035 1.94872 19.4986C2.60894 21.962 3.41036 24.0686 4.35319 25.8181C4.91719 26.8758 5.64455 27.9287 6.53443 28.9768C6.61775 29.0704 6.83857 29.335 7.19679 29.7713C7.55546 30.2071 7.80534 30.5077 7.94622 30.673C8.08713 30.8383 8.31119 31.0785 8.61748 31.3927C8.92455 31.7075 9.21196 31.9688 9.48041 32.1776C9.74953 32.3856 10.0382 32.5794 10.3469 32.7577C11.3994 33.3654 12.6324 33.688 14.0448 33.7255C15.57 33.752 16.6179 33.5484 17.1887 33.1146C17.4801 32.9018 17.826 32.579 18.2278 32.1472C18.6299 31.7159 18.9196 31.3456 19.0981 31.0366C19.1912 30.8761 19.2432 30.7462 19.2553 30.6455Z" fill="white"/>
</svg>
