<svg width="22" height="38" viewBox="0 0 22 38" fill="none" xmlns="http://www.w3.org/2000/svg">
<path d="M20.9983 33.925C21.0539 33.6551 20.7683 33.0455 20.1415 32.097C19.9829 31.8205 19.7517 31.4358 19.4497 30.9427C19.1474 30.4494 18.8749 29.9983 18.6328 29.5901C18.3899 29.1815 18.1661 28.7923 17.9606 28.4224C17.9321 28.3556 17.8383 28.1549 17.6797 27.8196C17.5205 27.4846 17.3756 27.2205 17.2437 27.0267C17.112 26.8337 16.9581 26.686 16.7819 26.5843C16.5304 26.4391 16.1125 26.437 15.5284 26.5775C14.9439 26.7184 14.3728 26.9083 13.8149 27.1486C13.257 27.3887 12.6985 27.5859 12.1396 27.7413C11.58 27.8965 11.187 27.9085 10.9608 27.7779C10.8472 27.7123 10.7239 27.5989 10.5903 27.4385C10.457 27.2777 10.3591 27.1494 10.2955 27.0548C10.2334 26.9598 10.1334 26.785 9.99588 26.5289C9.85773 26.273 9.78027 26.1318 9.76244 26.1046C8.59101 24.1532 7.74474 22.2051 7.22321 20.2607C6.7025 18.3157 6.46105 16.2057 6.50007 13.9299C6.50205 13.8975 6.49857 13.7361 6.48997 13.4461C6.4813 13.1558 6.48023 12.9542 6.48719 12.8405C6.49396 12.7271 6.51498 12.5672 6.55022 12.3611C6.58546 12.1551 6.63559 11.9954 6.70104 11.882C6.8317 11.6557 7.17818 11.4698 7.74018 11.3245C8.302 11.1794 8.88469 11.0711 9.48747 11.0001C10.0906 10.9292 10.6801 10.8082 11.2566 10.638C11.8331 10.4675 12.1939 10.2566 12.3391 10.005C12.4407 9.82903 12.5003 9.62416 12.5176 9.391C12.5351 9.15741 12.5286 8.85632 12.4987 8.48662C12.4687 8.11703 12.4493 7.89637 12.4407 7.82398C12.4336 7.40084 12.4331 6.95187 12.4386 6.47694C12.444 6.00206 12.4548 5.47543 12.4698 4.89708C12.4849 4.31905 12.4925 3.87036 12.492 3.55136C12.5602 2.41679 12.503 1.74605 12.3199 1.54005C12.2536 1.45143 12.1324 1.35607 11.9564 1.25448C11.6165 1.05824 11.1368 0.865032 10.5169 0.675057C9.89679 0.484769 9.38984 0.367987 8.99524 0.324972C8.2137 0.225827 7.10388 0.60826 5.66575 1.47189C4.34147 2.28378 3.34504 3.26882 2.67687 4.42612C2.48092 4.76553 2.31228 5.10846 2.17091 5.45497C2.02974 5.80116 1.89954 6.20833 1.78043 6.67644C1.66119 7.14431 1.57984 7.49603 1.53642 7.7306C1.493 7.96533 1.42043 8.38885 1.31858 9.00124C1.21655 9.61335 1.15204 9.98688 1.12441 10.1219C0.852853 11.6091 0.739489 13.0112 0.783995 14.3287C0.847813 16.5125 1.24283 18.9594 1.96864 21.6682C2.69458 24.377 3.5758 26.6933 4.6125 28.6169C5.23265 29.78 6.03243 30.9378 7.0109 32.0901C7.10253 32.1931 7.34533 32.4841 7.73921 32.9637C8.13359 33.4429 8.40835 33.7735 8.56326 33.9552C8.7182 34.137 8.96457 34.4011 9.30135 34.7466C9.63899 35.0927 9.95502 35.3801 10.2502 35.6096C10.5461 35.8384 10.8635 36.0515 11.203 36.2475C12.3603 36.9157 13.716 37.2704 15.269 37.3117C16.946 37.3408 18.0983 37.1169 18.7259 36.6399C19.0463 36.4059 19.4267 36.051 19.8685 35.5762C20.3106 35.1019 20.6292 34.6948 20.8254 34.355C20.9278 34.1785 20.985 34.0357 20.9983 33.925Z" fill="#C3002F"/>
</svg>
